<svg width="1000" height="1000" viewBox="0 0 1000 1000" fill="none" xmlns="http://www.w3.org/2000/svg">
<path d="M283.297 95.4416V38H712.5V95.4416H774V636H228V95.4416H283.297Z" fill="#7B463A"/>
<path d="M228.669 415.742V361.116H281.065H717.517H773.815V415.742H828.441V470.926H881.952V799.24H828.441V851.079H773.815V799.24L718.631 798.683L717.517 638.149H665.12V799.24H718.631V905.705H773.815V961.446H664.005V905.148L555.868 905.705V961.446H447.173V905.705H334.576V961.446H228.669V905.705H281.065L280.508 799.24H337.363V638.149H281.065L280.508 798.683L228.669 799.24V851.079H172.37V799.24H117.744V470.926H172.37V415.742H228.669Z" fill="#119195"/>
<path d="M334.347 450.5V310.947V201.137V93H662.661V201.137V310.947V450.5L608.592 527.5H387.5L334.347 450.5Z" fill="#F89B3F"/>
<rect x="554.519" y="145.957" width="55.7409" height="55.7409" fill="#7B4639"/>
<rect x="391" y="145" width="55.7409" height="55.7409" fill="#7B4639"/>
<rect x="392" y="201" width="55" height="107" fill="#010101"/>
<rect x="554.519" y="201.694" width="55.7409" height="107.023" fill="#010101"/>
<rect x="881.27" y="527.219" width="55.7409" height="167.223" fill="#F89B3F"/>
<rect x="62" y="527.219" width="55.7409" height="167.223" fill="#F89B3F"/>
<rect x="334.021" y="905.145" width="113.711" height="56.8557" fill="#F89B3F"/>
<rect x="441" y="418" width="116" height="57" fill="black"/>
<path d="M555.752 905.145H665.004V962H555.752V905.145Z" fill="#F89B3F"/>
</svg>
